<svg width="18" height="18" viewBox="0 0 18 18" fill="none" xmlns="http://www.w3.org/2000/svg">
<path d="M6.33333 15.2222V9.88889C6.33333 9.41739 6.14603 8.96521 5.81263 8.63181C5.47924 8.29841 5.02705 8.11111 4.55556 8.11111H2.77778C2.30628 8.11111 1.8541 8.29841 1.5207 8.63181C1.1873 8.96521 1 9.41739 1 9.88889V15.2222C1 15.6937 1.1873 16.1459 1.5207 16.4793C1.8541 16.8127 2.30628 17 2.77778 17H4.55556C5.02705 17 5.47924 16.8127 5.81263 16.4793C6.14603 16.1459 6.33333 15.6937 6.33333 15.2222ZM6.33333 15.2222V6.33333C6.33333 5.86184 6.52063 5.40965 6.85403 5.07625C7.18743 4.74286 7.63962 4.55556 8.11111 4.55556H9.88889C10.3604 4.55556 10.8126 4.74286 11.146 5.07625C11.4794 5.40965 11.6667 5.86184 11.6667 6.33333V15.2222M6.33333 15.2222C6.33333 15.6937 6.52063 16.1459 6.85403 16.4793C7.18743 16.8127 7.63962 17 8.11111 17H9.88889C10.3604 17 10.8126 16.8127 11.146 16.4793C11.4794 16.1459 11.6667 15.6937 11.6667 15.2222M11.6667 15.2222V2.77778C11.6667 2.30628 11.854 1.8541 12.1874 1.5207C12.5208 1.1873 12.9729 1 13.4444 1H15.2222C15.6937 1 16.1459 1.1873 16.4793 1.5207C16.8127 1.8541 17 2.30628 17 2.77778V15.2222C17 15.6937 16.8127 16.1459 16.4793 16.4793C16.1459 16.8127 15.6937 17 15.2222 17H13.4444C12.9729 17 12.5208 16.8127 12.1874 16.4793C11.854 16.1459 11.6667 15.6937 11.6667 15.2222Z" stroke="#E2E8F0" stroke-width="2" stroke-linecap="round" stroke-linejoin="round"/>
</svg>
